<svg width="135" height="30" viewBox="0 0 135 30" fill="none" xmlns="http://www.w3.org/2000/svg">
<path d="M7.584 18.088C7.43467 18.088 7.2 18.0827 6.88 18.072C6.56 18.0613 6.27733 18.056 6.032 18.056L4.512 23.032C4.24533 23.096 3.952 23.1387 3.632 23.16C3.32267 23.1813 3.00267 23.192 2.672 23.192C2.33067 23.192 1.96267 23.1653 1.568 23.112C1.17333 23.0587 0.848 22.9893 0.592 22.904L0.448 22.68L7.584 1.144C7.92533 1.09067 8.336 1.05333 8.816 1.032C9.296 0.999999 9.71733 0.983999 10.08 0.983999C10.4213 0.983999 10.832 0.999999 11.312 1.032C11.8027 1.05333 12.208 1.096 12.528 1.16L19.552 22.728C19.2533 22.8987 18.8693 23.0267 18.4 23.112C17.9413 23.208 17.504 23.256 17.088 23.256C16.4053 23.256 15.872 23.1013 15.488 22.792C15.104 22.472 14.7787 21.8587 14.512 20.952L13.648 18.056C13.392 18.056 13.0987 18.0613 12.768 18.072C12.448 18.0827 12.2133 18.088 12.064 18.088H7.584ZM8.336 10.568L7.072 14.648C7.30667 14.648 7.568 14.6427 7.856 14.632C8.144 14.6213 8.36267 14.616 8.512 14.616H11.264C11.4027 14.616 11.6053 14.6213 11.872 14.632C12.1387 14.6427 12.3893 14.648 12.624 14.648L11.632 11.384C11.3653 10.4773 11.072 9.45867 10.752 8.328C10.4427 7.18667 10.1653 6.14133 9.92 5.192H9.744C9.584 5.992 9.36 6.90933 9.072 7.944C8.784 8.968 8.53867 9.84267 8.336 10.568ZM23.6153 6.936C24.7566 6.936 25.5513 7.45333 25.9993 8.488C26.5433 7.95467 27.1779 7.51733 27.9033 7.176C28.6393 6.83467 29.4339 6.664 30.2873 6.664C31.5459 6.664 32.5913 7.016 33.4233 7.72C34.2553 8.41333 34.8793 9.37867 35.2953 10.616C35.7113 11.8427 35.9193 13.256 35.9193 14.856C35.9193 16.7333 35.6206 18.296 35.0233 19.544C34.4366 20.792 33.6633 21.7307 32.7033 22.36C31.7539 22.9893 30.7299 23.304 29.6313 23.304C29.0126 23.304 28.4313 23.2187 27.8873 23.048C27.3433 22.888 26.8259 22.6853 26.3353 22.44V27.32C26.3353 28.2587 26.1646 28.92 25.8233 29.304C25.4819 29.6987 24.8899 29.896 24.0473 29.896H22.4313L22.2233 29.688V7.144L22.4313 6.936H23.6153ZM29.2473 10.072C28.8099 10.072 28.3246 10.1947 27.7913 10.44C27.2686 10.6853 26.7833 11.112 26.3353 11.72V19.144C26.7726 19.4213 27.2099 19.6507 27.6473 19.832C28.0953 20.0133 28.5326 20.104 28.9593 20.104C29.7913 20.104 30.4419 19.656 30.9113 18.76C31.3913 17.8533 31.6313 16.5467 31.6313 14.84C31.6313 13.1547 31.3966 11.9387 30.9273 11.192C30.4686 10.4453 29.9086 10.072 29.2473 10.072ZM40.709 6.936C41.8503 6.936 42.645 7.45333 43.093 8.488C43.637 7.95467 44.2717 7.51733 44.997 7.176C45.733 6.83467 46.5277 6.664 47.381 6.664C48.6397 6.664 49.685 7.016 50.517 7.72C51.349 8.41333 51.973 9.37867 52.389 10.616C52.805 11.8427 53.013 13.256 53.013 14.856C53.013 16.7333 52.7143 18.296 52.117 19.544C51.5303 20.792 50.757 21.7307 49.797 22.36C48.8477 22.9893 47.8237 23.304 46.725 23.304C46.1063 23.304 45.525 23.2187 44.981 23.048C44.437 22.888 43.9197 22.6853 43.429 22.44V27.32C43.429 28.2587 43.2583 28.92 42.917 29.304C42.5757 29.6987 41.9837 29.896 41.141 29.896H39.525L39.317 29.688V7.144L39.525 6.936H40.709ZM46.341 10.072C45.9037 10.072 45.4183 10.1947 44.885 10.44C44.3623 10.6853 43.877 11.112 43.429 11.72V19.144C43.8663 19.4213 44.3037 19.6507 44.741 19.832C45.189 20.0133 45.6263 20.104 46.053 20.104C46.885 20.104 47.5357 19.656 48.005 18.76C48.485 17.8533 48.725 16.5467 48.725 14.84C48.725 13.1547 48.4903 11.9387 48.021 11.192C47.5623 10.4453 47.0023 10.072 46.341 10.072ZM68.0108 21.592C67.2748 22.1147 66.3948 22.5467 65.3708 22.888C64.3468 23.2187 63.2854 23.384 62.1868 23.384C60.5974 23.384 59.3388 23 58.4108 22.232C57.4934 21.464 56.8428 20.456 56.4588 19.208C56.0748 17.9493 55.8828 16.5893 55.8828 15.128C55.8828 13.5493 56.1281 12.1413 56.6188 10.904C57.1201 9.66667 57.8454 8.696 58.7948 7.992C59.7548 7.27733 60.9174 6.92 62.2828 6.92C63.6481 6.92 64.7894 7.22933 65.7068 7.848C66.6241 8.456 67.3121 9.27733 67.7708 10.312C68.2294 11.3467 68.4588 12.4933 68.4588 13.752C68.4588 14.4667 68.4108 15.176 68.3148 15.88H58.3948C58.4481 17.4693 58.7734 18.7707 59.3708 19.784C59.9788 20.7973 61.0241 21.304 62.5068 21.304C63.3601 21.304 64.1708 21.176 64.9388 20.92C65.7174 20.664 66.4534 20.3387 67.1468 19.944C67.3708 20.1467 67.5628 20.408 67.7228 20.728C67.8828 21.048 67.9788 21.336 68.0108 21.592ZM62.2828 8.744C61.0774 8.744 60.1441 9.22933 59.4828 10.2C58.8214 11.16 58.4588 12.4453 58.3948 14.056H66.0588V13.608C66.0588 12.7227 65.9308 11.912 65.6748 11.176C65.4294 10.44 65.0294 9.85333 64.4748 9.416C63.9201 8.968 63.1894 8.744 62.2828 8.744ZM72.2645 8.392C72.3392 8.17867 72.4725 7.93867 72.6645 7.672C72.8565 7.40533 73.0645 7.208 73.2885 7.08C73.9178 7.304 74.4192 7.66133 74.7925 8.152C75.1658 8.632 75.4325 9.21867 75.5925 9.912C75.9765 9.12267 76.5152 8.456 77.2085 7.912C77.9125 7.35733 78.8032 7.08 79.8805 7.08C80.0512 7.08 80.2592 7.09067 80.5045 7.112C80.7605 7.13333 81.0432 7.16533 81.3525 7.208C81.3525 7.58133 81.3098 7.976 81.2245 8.392C81.1498 8.79733 81.0058 9.15467 80.7925 9.464C80.6112 9.44267 80.4245 9.432 80.2325 9.432C80.0512 9.42133 79.8698 9.416 79.6885 9.416C78.6432 9.416 77.8112 9.72533 77.1925 10.344C76.5738 10.9627 76.1045 11.6293 75.7845 12.344V23C75.4752 23.064 75.0858 23.096 74.6165 23.096C74.1365 23.096 73.7418 23.064 73.4325 23V11.672C73.4325 10.872 73.3098 10.2 73.0645 9.656C72.8192 9.10133 72.5525 8.68 72.2645 8.392ZM91.7128 7.272C91.7874 7.60267 91.8248 7.90667 91.8248 8.184C91.8248 8.49333 91.7874 8.79733 91.7128 9.096L87.6648 9.048V19.848C87.6648 20.232 87.7554 20.5467 87.9368 20.792C88.1288 21.0373 88.4594 21.16 88.9288 21.16H91.3608C91.4888 21.512 91.5528 21.9387 91.5528 22.44C91.5528 22.5253 91.5528 22.6107 91.5528 22.696C91.5528 22.7813 91.5421 22.8613 91.5208 22.936C91.0194 23 90.5074 23.048 89.9848 23.08C89.4621 23.112 88.8914 23.128 88.2728 23.128C87.3768 23.128 86.6621 22.904 86.1288 22.456C85.6061 21.9973 85.3448 21.336 85.3448 20.472V9.064L83.0888 9.096C83.0248 8.79733 82.9928 8.49333 82.9928 8.184C82.9928 7.90667 83.0248 7.60267 83.0888 7.272L85.3448 7.304V3.96C85.3448 3.43733 85.4194 3.03733 85.5688 2.76C85.7288 2.48267 86.0754 2.344 86.6088 2.344H87.4728L87.6648 2.552V7.32L91.7128 7.272ZM95.3275 10.328C95.3275 9.816 95.3008 9.32533 95.2475 8.856C95.2048 8.38667 95.1088 7.976 94.9595 7.624C95.3328 7.28267 95.8288 7.112 96.4475 7.112C96.8955 7.112 97.2155 7.24 97.4075 7.496C97.5995 7.752 97.6955 8.14133 97.6955 8.664V17.544C97.6955 18.8027 97.8555 19.72 98.1755 20.296C98.4955 20.8613 99.1142 21.144 100.032 21.144C100.853 21.144 101.722 20.9147 102.64 20.456C103.557 19.9867 104.325 19.3947 104.944 18.68V7.304C105.253 7.24 105.642 7.208 106.112 7.208C106.592 7.208 106.992 7.24 107.312 7.304V18.568C107.312 19.2507 107.36 19.9013 107.456 20.52C107.562 21.128 107.813 21.6187 108.208 21.992C108.122 22.216 107.978 22.4507 107.776 22.696C107.584 22.9307 107.365 23.1067 107.12 23.224C106.533 23.0107 106.08 22.696 105.76 22.28C105.44 21.8533 105.221 21.3733 105.104 20.84C104.389 21.5653 103.525 22.1573 102.512 22.616C101.509 23.064 100.485 23.288 99.4395 23.288C98.4368 23.288 97.6315 23.064 97.0235 22.616C96.4262 22.1573 95.9942 21.5493 95.7275 20.792C95.4608 20.0347 95.3275 19.1973 95.3275 18.28V10.328ZM112.108 8.392C112.183 8.17867 112.316 7.93867 112.508 7.672C112.7 7.40533 112.908 7.208 113.132 7.08C113.762 7.304 114.263 7.66133 114.636 8.152C115.01 8.632 115.276 9.21867 115.436 9.912C115.82 9.12267 116.359 8.456 117.052 7.912C117.756 7.35733 118.647 7.08 119.724 7.08C119.895 7.08 120.103 7.09067 120.348 7.112C120.604 7.13333 120.887 7.16533 121.196 7.208C121.196 7.58133 121.154 7.976 121.068 8.392C120.994 8.79733 120.85 9.15467 120.636 9.464C120.455 9.44267 120.268 9.432 120.076 9.432C119.895 9.42133 119.714 9.416 119.532 9.416C118.487 9.416 117.655 9.72533 117.036 10.344C116.418 10.9627 115.948 11.6293 115.628 12.344V23C115.319 23.064 114.93 23.096 114.46 23.096C113.98 23.096 113.586 23.064 113.276 23V11.672C113.276 10.872 113.154 10.2 112.908 9.656C112.663 9.10133 112.396 8.68 112.108 8.392ZM134.542 21.592C133.806 22.1147 132.926 22.5467 131.902 22.888C130.878 23.2187 129.817 23.384 128.718 23.384C127.129 23.384 125.87 23 124.942 22.232C124.025 21.464 123.374 20.456 122.99 19.208C122.606 17.9493 122.414 16.5893 122.414 15.128C122.414 13.5493 122.659 12.1413 123.15 10.904C123.651 9.66667 124.377 8.696 125.326 7.992C126.286 7.27733 127.449 6.92 128.814 6.92C130.179 6.92 131.321 7.22933 132.238 7.848C133.155 8.456 133.843 9.27733 134.302 10.312C134.761 11.3467 134.99 12.4933 134.99 13.752C134.99 14.4667 134.942 15.176 134.846 15.88H124.926C124.979 17.4693 125.305 18.7707 125.902 19.784C126.51 20.7973 127.555 21.304 129.038 21.304C129.891 21.304 130.702 21.176 131.47 20.92C132.249 20.664 132.985 20.3387 133.678 19.944C133.902 20.1467 134.094 20.408 134.254 20.728C134.414 21.048 134.51 21.336 134.542 21.592ZM128.814 8.744C127.609 8.744 126.675 9.22933 126.014 10.2C125.353 11.16 124.99 12.4453 124.926 14.056H132.59V13.608C132.59 12.7227 132.462 11.912 132.206 11.176C131.961 10.44 131.561 9.85333 131.006 9.416C130.451 8.968 129.721 8.744 128.814 8.744Z" fill="#464644"/>
</svg>
