<svg width="110" height="34" viewBox="0 0 110 34" fill="none" xmlns="http://www.w3.org/2000/svg">
<path d="M38.266 20.237C38.182 20.237 38.05 20.234 37.87 20.228C37.69 20.222 37.531 20.219 37.393 20.219L36.538 23.018C36.388 23.054 36.223 23.078 36.043 23.09C35.869 23.102 35.689 23.108 35.503 23.108C35.311 23.108 35.104 23.093 34.882 23.063C34.66 23.033 34.477 22.994 34.333 22.946L34.252 22.82L38.266 10.706C38.458 10.676 38.689 10.655 38.959 10.643C39.229 10.625 39.466 10.616 39.67 10.616C39.862 10.616 40.093 10.625 40.363 10.643C40.639 10.655 40.867 10.679 41.047 10.715L44.998 22.847C44.83 22.943 44.614 23.015 44.35 23.063C44.092 23.117 43.846 23.144 43.612 23.144C43.228 23.144 42.928 23.057 42.712 22.883C42.496 22.703 42.313 22.358 42.163 21.848L41.677 20.219C41.533 20.219 41.368 20.222 41.182 20.228C41.002 20.234 40.87 20.237 40.786 20.237H38.266ZM38.689 16.007L37.978 18.302C38.11 18.302 38.257 18.299 38.419 18.293C38.581 18.287 38.704 18.284 38.788 18.284H40.336C40.414 18.284 40.528 18.287 40.678 18.293C40.828 18.299 40.969 18.302 41.101 18.302L40.543 16.466C40.393 15.956 40.228 15.383 40.048 14.747C39.874 14.105 39.718 13.517 39.58 12.983H39.481C39.391 13.433 39.265 13.949 39.103 14.531C38.941 15.107 38.803 15.599 38.689 16.007ZM47.2836 13.964C47.9256 13.964 48.3726 14.255 48.6246 14.837C48.9306 14.537 49.2876 14.291 49.6956 14.099C50.1096 13.907 50.5566 13.811 51.0366 13.811C51.7446 13.811 52.3326 14.009 52.8006 14.405C53.2686 14.795 53.6196 15.338 53.8536 16.034C54.0876 16.724 54.2046 17.519 54.2046 18.419C54.2046 19.475 54.0366 20.354 53.7006 21.056C53.3706 21.758 52.9356 22.286 52.3956 22.64C51.8616 22.994 51.2856 23.171 50.6676 23.171C50.3196 23.171 49.9926 23.123 49.6866 23.027C49.3806 22.937 49.0896 22.823 48.8136 22.685V25.43C48.8136 25.958 48.7176 26.33 48.5256 26.546C48.3336 26.768 48.0006 26.879 47.5266 26.879H46.6176L46.5006 26.762V14.081L46.6176 13.964H47.2836ZM50.4516 15.728C50.2056 15.728 49.9326 15.797 49.6326 15.935C49.3386 16.073 49.0656 16.313 48.8136 16.655V20.831C49.0596 20.987 49.3056 21.116 49.5516 21.218C49.8036 21.32 50.0496 21.371 50.2896 21.371C50.7576 21.371 51.1236 21.119 51.3876 20.615C51.6576 20.105 51.7926 19.37 51.7926 18.41C51.7926 17.462 51.6606 16.778 51.3966 16.358C51.1386 15.938 50.8236 15.728 50.4516 15.728ZM56.8988 13.964C57.5408 13.964 57.9878 14.255 58.2398 14.837C58.5458 14.537 58.9028 14.291 59.3108 14.099C59.7248 13.907 60.1718 13.811 60.6518 13.811C61.3598 13.811 61.9478 14.009 62.4158 14.405C62.8838 14.795 63.2348 15.338 63.4688 16.034C63.7028 16.724 63.8198 17.519 63.8198 18.419C63.8198 19.475 63.6518 20.354 63.3158 21.056C62.9858 21.758 62.5508 22.286 62.0108 22.64C61.4768 22.994 60.9008 23.171 60.2828 23.171C59.9348 23.171 59.6078 23.123 59.3018 23.027C58.9958 22.937 58.7048 22.823 58.4288 22.685V25.43C58.4288 25.958 58.3328 26.33 58.1408 26.546C57.9488 26.768 57.6158 26.879 57.1418 26.879H56.2328L56.1158 26.762V14.081L56.2328 13.964H56.8988ZM60.0668 15.728C59.8208 15.728 59.5478 15.797 59.2478 15.935C58.9538 16.073 58.6808 16.313 58.4288 16.655V20.831C58.6748 20.987 58.9208 21.116 59.1668 21.218C59.4188 21.32 59.6648 21.371 59.9048 21.371C60.3728 21.371 60.7388 21.119 61.0028 20.615C61.2728 20.105 61.4078 19.37 61.4078 18.41C61.4078 17.462 61.2758 16.778 61.0118 16.358C60.7538 15.938 60.4388 15.728 60.0668 15.728ZM72.256 22.208C71.842 22.502 71.347 22.745 70.771 22.937C70.195 23.123 69.598 23.216 68.98 23.216C68.086 23.216 67.378 23 66.856 22.568C66.34 22.136 65.974 21.569 65.758 20.867C65.542 20.159 65.434 19.394 65.434 18.572C65.434 17.684 65.572 16.892 65.848 16.196C66.13 15.5 66.538 14.954 67.072 14.558C67.612 14.156 68.266 13.955 69.034 13.955C69.802 13.955 70.444 14.129 70.96 14.477C71.476 14.819 71.863 15.281 72.121 15.863C72.379 16.445 72.508 17.09 72.508 17.798C72.508 18.2 72.481 18.599 72.427 18.995H66.847C66.877 19.889 67.06 20.621 67.396 21.191C67.738 21.761 68.326 22.046 69.16 22.046C69.64 22.046 70.096 21.974 70.528 21.83C70.966 21.686 71.38 21.503 71.77 21.281C71.896 21.395 72.004 21.542 72.094 21.722C72.184 21.902 72.238 22.064 72.256 22.208ZM69.034 14.981C68.356 14.981 67.831 15.254 67.459 15.8C67.087 16.34 66.883 17.063 66.847 17.969H71.158V17.717C71.158 17.219 71.086 16.763 70.942 16.349C70.804 15.935 70.579 15.605 70.267 15.359C69.955 15.107 69.544 14.981 69.034 14.981ZM74.6488 14.783C74.6908 14.663 74.7658 14.528 74.8738 14.378C74.9818 14.228 75.0988 14.117 75.2248 14.045C75.5788 14.171 75.8608 14.372 76.0708 14.648C76.2808 14.918 76.4308 15.248 76.5208 15.638C76.7368 15.194 77.0398 14.819 77.4298 14.513C77.8258 14.201 78.3268 14.045 78.9328 14.045C79.0288 14.045 79.1458 14.051 79.2838 14.063C79.4278 14.075 79.5868 14.093 79.7608 14.117C79.7608 14.327 79.7368 14.549 79.6888 14.783C79.6468 15.011 79.5658 15.212 79.4458 15.386C79.3438 15.374 79.2388 15.368 79.1308 15.368C79.0288 15.362 78.9268 15.359 78.8248 15.359C78.2368 15.359 77.7688 15.533 77.4208 15.881C77.0728 16.229 76.8088 16.604 76.6288 17.006V23C76.4548 23.036 76.2358 23.054 75.9718 23.054C75.7018 23.054 75.4798 23.036 75.3058 23V16.628C75.3058 16.178 75.2368 15.8 75.0988 15.494C74.9608 15.182 74.8108 14.945 74.6488 14.783ZM85.5884 14.153C85.6304 14.339 85.6514 14.51 85.6514 14.666C85.6514 14.84 85.6304 15.011 85.5884 15.179L83.3114 15.152V21.227C83.3114 21.443 83.3624 21.62 83.4644 21.758C83.5724 21.896 83.7584 21.965 84.0224 21.965H85.3904C85.4624 22.163 85.4984 22.403 85.4984 22.685C85.4984 22.733 85.4984 22.781 85.4984 22.829C85.4984 22.877 85.4924 22.922 85.4804 22.964C85.1984 23 84.9104 23.027 84.6164 23.045C84.3224 23.063 84.0014 23.072 83.6534 23.072C83.1494 23.072 82.7474 22.946 82.4474 22.694C82.1534 22.436 82.0064 22.064 82.0064 21.578V15.161L80.7374 15.179C80.7014 15.011 80.6834 14.84 80.6834 14.666C80.6834 14.51 80.7014 14.339 80.7374 14.153L82.0064 14.171V12.29C82.0064 11.996 82.0484 11.771 82.1324 11.615C82.2224 11.459 82.4174 11.381 82.7174 11.381H83.2034L83.3114 11.498V14.18L85.5884 14.153ZM87.6217 15.872C87.6217 15.584 87.6067 15.308 87.5767 15.044C87.5527 14.78 87.4987 14.549 87.4147 14.351C87.6247 14.159 87.9037 14.063 88.2517 14.063C88.5037 14.063 88.6837 14.135 88.7917 14.279C88.8997 14.423 88.9537 14.642 88.9537 14.936V19.931C88.9537 20.639 89.0437 21.155 89.2237 21.479C89.4037 21.797 89.7517 21.956 90.2677 21.956C90.7297 21.956 91.2187 21.827 91.7347 21.569C92.2507 21.305 92.6827 20.972 93.0307 20.57V14.171C93.2047 14.135 93.4237 14.117 93.6877 14.117C93.9577 14.117 94.1827 14.135 94.3627 14.171V20.507C94.3627 20.891 94.3897 21.257 94.4437 21.605C94.5037 21.947 94.6447 22.223 94.8667 22.433C94.8187 22.559 94.7377 22.691 94.6237 22.829C94.5157 22.961 94.3927 23.06 94.2547 23.126C93.9247 23.006 93.6697 22.829 93.4897 22.595C93.3097 22.355 93.1867 22.085 93.1207 21.785C92.7187 22.193 92.2327 22.526 91.6627 22.784C91.0987 23.036 90.5227 23.162 89.9347 23.162C89.3707 23.162 88.9177 23.036 88.5757 22.784C88.2397 22.526 87.9967 22.184 87.8467 21.758C87.6967 21.332 87.6217 20.861 87.6217 20.345V15.872ZM97.0609 14.783C97.1029 14.663 97.1779 14.528 97.2859 14.378C97.3939 14.228 97.5109 14.117 97.6369 14.045C97.9909 14.171 98.2729 14.372 98.4829 14.648C98.6929 14.918 98.8429 15.248 98.9329 15.638C99.1489 15.194 99.4519 14.819 99.8419 14.513C100.238 14.201 100.739 14.045 101.345 14.045C101.441 14.045 101.558 14.051 101.696 14.063C101.84 14.075 101.999 14.093 102.173 14.117C102.173 14.327 102.149 14.549 102.101 14.783C102.059 15.011 101.978 15.212 101.858 15.386C101.756 15.374 101.651 15.368 101.543 15.368C101.441 15.362 101.339 15.359 101.237 15.359C100.649 15.359 100.181 15.533 99.8329 15.881C99.4849 16.229 99.2209 16.604 99.0409 17.006V23C98.8669 23.036 98.6479 23.054 98.3839 23.054C98.1139 23.054 97.8919 23.036 97.7179 23V16.628C97.7179 16.178 97.6489 15.8 97.5109 15.494C97.3729 15.182 97.2229 14.945 97.0609 14.783ZM109.68 22.208C109.266 22.502 108.771 22.745 108.195 22.937C107.619 23.123 107.022 23.216 106.404 23.216C105.51 23.216 104.802 23 104.28 22.568C103.764 22.136 103.398 21.569 103.182 20.867C102.966 20.159 102.858 19.394 102.858 18.572C102.858 17.684 102.996 16.892 103.272 16.196C103.554 15.5 103.962 14.954 104.496 14.558C105.036 14.156 105.69 13.955 106.458 13.955C107.226 13.955 107.868 14.129 108.384 14.477C108.9 14.819 109.287 15.281 109.545 15.863C109.803 16.445 109.932 17.09 109.932 17.798C109.932 18.2 109.905 18.599 109.851 18.995H104.271C104.301 19.889 104.484 20.621 104.82 21.191C105.162 21.761 105.75 22.046 106.584 22.046C107.064 22.046 107.52 21.974 107.952 21.83C108.39 21.686 108.804 21.503 109.194 21.281C109.32 21.395 109.428 21.542 109.518 21.722C109.608 21.902 109.662 22.064 109.68 22.208ZM106.458 14.981C105.78 14.981 105.255 15.254 104.883 15.8C104.511 16.34 104.307 17.063 104.271 17.969H108.582V17.717C108.582 17.219 108.51 16.763 108.366 16.349C108.228 15.935 108.003 15.605 107.691 15.359C107.379 15.107 106.968 14.981 106.458 14.981Z" fill="#ECEFF1"/>
<path d="M16.3716 23.8235C13.314 22.743 11.7113 19.3884 12.7918 16.3309" stroke="#00ACC1" stroke-miterlimit="16"/>
<path d="M26.079 23.4024C28.9071 19.1216 27.7295 13.3587 23.4488 10.5306C19.168 7.70254 13.4052 8.88015 10.5771 13.1609" stroke="#00ACC1" stroke-miterlimit="16"/>
<path d="M22.1339 16.395C21.8674 15.8534 21.4887 15.3747 21.0231 14.9906C20.5575 14.6065 20.0155 14.3258 19.4332 14.1672C18.8508 14.0085 18.2413 13.9755 17.6452 14.0704" stroke="#00ACC1" stroke-miterlimit="16"/>
<path d="M19.8136 16.6986C19.4004 16.3054 18.8493 16.0903 18.279 16.0995C17.7087 16.1087 17.1649 16.3416 16.7646 16.7479" stroke="#00ACC1" stroke-miterlimit="16"/>
<circle cx="18.328" cy="18.2873" r="0.56048" transform="rotate(-1.91883 18.328 18.2873)" stroke="#00ACC1" stroke-miterlimit="16"/>
<path d="M28.6652 11.7134C25.0344 6.0043 17.4631 4.31946 11.754 7.95018C6.04492 11.5809 4.36009 19.1523 7.9908 24.8613" stroke="#00ACC1" stroke-miterlimit="16"/>
<path d="M23.6339 26.6306C19.0261 29.561 12.9151 28.2011 9.98469 23.5933C7.05429 18.9854 8.41414 12.8744 13.022 9.94404" stroke="#F48FB1" stroke-miterlimit="16"/>
<path d="M22.4209 15.6844C23.8584 17.9449 23.1913 20.9427 20.9309 22.3803C18.6704 23.8178 15.6726 23.1507 14.2351 20.8903" stroke="#ECEFF1" stroke-miterlimit="16"/>
<path d="M23.8005 14.8071C25.7226 17.8295 24.8307 21.8378 21.8083 23.7599C18.7859 25.682 14.7775 24.79 12.8554 21.7676" stroke="#00ACC1" stroke-miterlimit="16"/>
<path d="M22.5054 24.856C18.8776 27.1632 14.0664 26.0925 11.7592 22.4647C9.45212 18.8369 10.5227 14.0257 14.1506 11.7186" stroke="#F48FB1" stroke-miterlimit="16"/>
<path d="M22.1588 24.4281C25.5432 22.32 26.5778 17.8675 24.4697 14.4831C22.3616 11.0988 17.909 10.0642 14.5247 12.1723" stroke="#00ACC1" stroke-miterlimit="16"/>
<path d="M29.2917 17.9334C29.4943 23.9808 24.7561 29.0475 18.7086 29.2501C12.6612 29.4527 7.59447 24.7145 7.39186 18.6671" stroke="#00ACC1" stroke-miterlimit="16"/>
<path d="M22.2247 26.0657C17.9307 28.2168 12.706 26.4797 10.5549 22.1857C8.40377 17.8917 10.1409 12.667 14.4349 10.5159" stroke="#ECEFF1" stroke-miterlimit="16"/>
<path d="M15.8781 13.4114C18.5706 12.0626 21.8467 13.1518 23.1956 15.8443" stroke="#ECEFF1" stroke-miterlimit="16"/>
<path d="M19.0354 19.6887C19.8041 19.3036 20.1151 18.3682 19.73 17.5994" stroke="#ECEFF1" stroke-miterlimit="16"/>
<path d="M18.4191 21.3553C16.7176 21.4133 15.2913 20.0809 15.2334 18.3794" stroke="#F48FB1" stroke-miterlimit="16"/>
<path d="M18.0918 19.2079C17.5794 19.0889 17.2605 18.577 17.3796 18.0646C17.4987 17.5523 18.0105 17.2334 18.5229 17.3525" stroke="#651FFF" stroke-miterlimit="16"/>
<path d="M7.48533 13.771C9.98277 7.78415 16.8606 4.95545 22.8474 7.4529C28.8342 9.95034 31.6629 16.8282 29.1655 22.815" stroke="#F48FB1" stroke-miterlimit="16"/>
<path d="M17.5711 15.9639C16.2771 16.3843 15.5688 17.7741 15.9892 19.0681C16.4095 20.3622 17.7993 21.0704 19.0934 20.6501" stroke="#F48FB1" stroke-miterlimit="16"/>
<path d="M18.7526 31.1749C11.6354 31.4122 5.67349 25.8349 5.43624 18.7177C5.199 11.6006 10.7763 5.63867 17.8934 5.40143" stroke="#F48FB1" stroke-miterlimit="16"/>
<path d="M17.8641 5.40946C24.9812 5.17102 30.944 10.7473 31.1825 17.8644C31.4209 24.9815 25.8446 30.9444 18.7275 31.1828" stroke="#651FFF" stroke-miterlimit="16"/>
<path d="M23.3588 14.5559C25.3846 17.3018 24.7704 21.1926 21.9869 23.2462" stroke="#607D8B" stroke-miterlimit="16"/>
<path d="M26.633 12.1416C29.9724 16.6678 28.96 23.0812 24.3718 26.4663C19.7836 29.8513 13.357 28.9263 10.0177 24.4001" stroke="#607D8B" stroke-miterlimit="16"/>
<path d="M22.836 18.1363C22.8048 17.2045 22.4856 16.3053 21.9223 15.5623C21.359 14.8194 20.5794 14.2692 19.6906 13.9876C18.8019 13.7059 17.8476 13.7066 16.9593 13.9895C16.0709 14.2724 15.292 14.8237 14.7298 15.5674" stroke="#F48FB1" stroke-miterlimit="16"/>
</svg>
