<?xml version="1.0" standalone="no"?>
<!DOCTYPE svg PUBLIC "-//W3C//DTD SVG 20010904//EN"
 "http://www.w3.org/TR/2001/REC-SVG-20010904/DTD/svg10.dtd">
<svg version="1.0" xmlns="http://www.w3.org/2000/svg"
 width="600.000000pt" height="600.000000pt" viewBox="0 0 600.000000 600.000000"
 preserveAspectRatio="xMidYMid meet">
<metadata>
Created by potrace 1.14, written by Peter Selinger 2001-2017
</metadata>
<g transform="translate(0.000000,600.000000) scale(0.100000,-0.100000)"
fill="#000000" stroke="none">
<path d="M2768 5525 c-3 -2 -38 -7 -161 -21 -21 -2 -79 -13 -130 -25 -51 -11
-103 -22 -116 -25 -50 -10 -215 -67 -308 -105 -769 -320 -1340 -1047 -1483
-1889 -34 -200 -38 -260 -35 -490 4 -238 5 -249 36 -430 71 -413 255 -823 522
-1157 138 -174 363 -380 557 -510 277 -186 630 -323 945 -369 22 -3 50 -7 62
-9 133 -22 481 -22 594 0 13 3 41 7 64 10 138 20 397 93 530 150 356 152 658
374 913 670 23 28 54 64 68 80 40 48 187 273 232 357 53 98 115 236 159 357
34 96 97 325 107 394 3 20 8 54 11 75 3 20 7 46 10 57 19 92 27 465 12 610 -9
88 -16 143 -22 175 -3 14 -8 39 -10 55 -37 218 -135 501 -251 724 -54 104
-192 323 -213 341 -3 3 -28 34 -56 70 -27 36 -57 72 -65 81 -213 225 -314 313
-510 442 -310 203 -642 322 -1040 373 -52 6 -416 14 -422 9z m412 -69 c14 -2
50 -7 80 -11 88 -10 268 -51 373 -85 239 -77 478 -199 677 -346 25 -19 50 -37
55 -41 84 -62 243 -216 341 -328 287 -332 496 -778 564 -1205 7 -41 14 -83 16
-92 26 -143 25 -518 -2 -707 -18 -126 -77 -375 -110 -464 -59 -156 -85 -217
-144 -332 -58 -115 -196 -338 -232 -376 -7 -8 -39 -46 -71 -86 -196 -242 -472
-460 -772 -608 -143 -72 -392 -162 -495 -181 -25 -4 -47 -8 -50 -9 -7 -2 -70
-14 -105 -20 -16 -3 -52 -8 -80 -11 -27 -2 -66 -7 -85 -10 -41 -6 -334 -6
-370 0 -14 2 -54 7 -90 11 -213 20 -502 106 -726 215 -752 366 -1267 1120
-1352 1980 -15 156 -8 488 14 630 10 65 45 228 64 300 127 483 438 960 830
1275 346 278 749 446 1195 499 91 11 414 12 475 2z"/>
<path d="M2817 5404 c-1 -1 -31 -5 -67 -8 -363 -35 -701 -154 -1010 -354 -396
-257 -689 -603 -888 -1052 -65 -147 -153 -449 -167 -576 -4 -32 -9 -62 -11
-65 -25 -43 -25 -563 0 -699 3 -14 7 -41 10 -60 19 -129 68 -312 123 -460 41
-112 152 -340 165 -340 5 0 18 4 28 10 17 9 14 19 -45 142 -35 73 -79 177
-100 232 -41 111 -100 333 -110 416 -4 30 -9 58 -11 62 -25 41 -25 585 0 700
3 13 8 39 10 58 39 275 175 631 343 892 203 318 484 583 808 764 234 131 546
235 775 259 30 3 72 8 92 11 57 8 305 8 378 0 177 -19 359 -58 500 -106 514
-175 941 -526 1227 -1008 l20 -33 23 19 24 19 -29 49 c-197 341 -532 665 -887
856 -195 106 -483 209 -651 233 -23 4 -60 10 -82 15 -57 13 -211 23 -348 24
-65 1 -119 0 -120 0z"/>
<path d="M2848 5305 c-2 -2 -41 -6 -88 -9 -88 -8 -108 -10 -174 -21 -236 -40
-508 -143 -738 -278 -260 -153 -518 -397 -699 -662 -74 -108 -199 -339 -199
-369 0 -13 20 -26 40 -26 4 0 33 50 64 110 190 378 499 708 853 911 206 119
515 231 703 254 30 4 58 9 61 10 11 7 175 18 279 18 151 1 247 -8 405 -39 140
-28 228 -54 360 -106 656 -260 1154 -845 1324 -1558 11 -47 22 -103 26 -125 3
-23 8 -52 10 -65 21 -104 28 -470 13 -610 -19 -171 -79 -412 -143 -576 -19
-49 -35 -90 -35 -90 0 -1 11 -9 25 -18 24 -16 24 -16 45 32 57 127 137 414
155 552 3 25 9 72 13 105 15 125 7 534 -13 605 -2 8 -6 37 -10 63 -3 26 -21
107 -39 180 -205 808 -825 1446 -1598 1643 -98 24 -230 51 -258 52 -8 0 -37 3
-65 7 -46 7 -311 15 -317 10z"/>
<path d="M2855 4829 c-325 -20 -627 -127 -895 -317 -148 -105 -430 -397 -430
-446 0 -11 39 -41 44 -34 206 290 450 487 773 622 75 31 210 71 289 85 33 6
73 13 89 17 64 13 370 13 455 0 286 -46 533 -148 756 -314 101 -75 256 -226
331 -322 203 -260 342 -613 370 -935 36 -410 -49 -782 -260 -1139 -39 -66 -40
-69 -22 -82 10 -8 22 -14 27 -14 21 0 156 260 209 402 30 81 82 278 93 348 37
248 24 529 -35 765 -190 752 -821 1305 -1554 1361 -121 9 -138 9 -240 3z"/>
<path d="M1930 4629 c-267 -186 -493 -446 -632 -730 -101 -206 -172 -444 -195
-655 -10 -90 -10 -422 0 -499 74 -552 367 -1043 810 -1357 83 -59 283 -165
390 -208 32 -12 56 -24 54 -27 -8 -7 -161 59 -277 118 -63 33 -158 90 -210
127 -118 84 -326 289 -409 404 -54 75 -66 86 -81 78 -11 -6 -21 -14 -24 -19
-4 -5 21 -46 54 -90 225 -304 520 -528 863 -655 107 -40 258 -83 322 -91 22
-3 51 -7 65 -10 140 -28 405 -24 595 10 851 149 1504 860 1620 1765 12 98 13
421 1 493 -2 15 -10 60 -16 100 -16 93 -53 234 -91 344 -49 142 -194 423 -217
423 -5 0 -16 -6 -26 -13 -17 -12 -14 -20 41 -118 101 -177 189 -406 216 -559
3 -14 10 -52 16 -85 22 -125 28 -192 29 -339 0 -128 -7 -204 -33 -376 -21
-138 -94 -358 -171 -516 -55 -115 -192 -328 -254 -398 -19 -22 -53 -60 -75
-85 -66 -73 -219 -205 -310 -267 l-86 -59 -17 22 -17 21 -77 -43 c-168 -94
-410 -175 -604 -201 -74 -10 -359 -12 -424 -3 -116 16 -134 19 -200 35 -370
88 -691 283 -942 573 -115 132 -203 267 -278 423 -75 158 -131 325 -155 463
-3 17 -8 37 -10 45 -20 75 -28 421 -13 568 25 243 128 545 263 767 142 236
357 458 584 605 22 15 23 18 9 43 l-14 28 -74 -52z m540 -3505 c55 -20 22 -16
-45 6 -33 11 -44 17 -25 13 19 -3 50 -11 70 -19z m73 -21 c-7 -2 -19 -2 -25 0
-7 3 -2 5 12 5 14 0 19 -2 13 -5z"/>
<path d="M2188 4517 c-201 -109 -417 -301 -551 -487 -159 -223 -283 -543 -315
-810 -9 -77 -8 -383 1 -450 116 -790 696 -1379 1450 -1471 95 -11 331 -8 422
6 86 14 245 58 342 96 l102 40 -11 30 c-6 17 -15 28 -22 25 -142 -62 -323
-116 -446 -133 -71 -10 -339 -10 -407 -1 -344 50 -653 205 -898 452 -98 98
-135 145 -209 258 -261 400 -340 889 -221 1361 109 431 392 805 770 1019 50
28 91 52 93 54 2 1 -2 14 -10 28 l-13 25 -77 -42z"/>
<path d="M2825 4423 c-172 -23 -326 -68 -465 -138 -87 -44 -89 -46 -78 -70 14
-30 21 -31 62 -6 97 60 309 130 446 147 78 10 278 10 340 0 501 -80 899 -423
1063 -916 58 -175 86 -415 66 -569 -4 -31 -10 -77 -13 -102 -22 -171 -142
-454 -255 -604 -98 -129 -264 -283 -358 -334 -20 -10 -21 -15 -11 -36 14 -32
20 -31 76 7 142 96 286 240 381 380 81 121 186 365 207 483 3 17 10 50 15 74
21 95 28 267 16 401 -7 79 -8 84 -33 208 -12 62 -75 235 -113 309 -96 192
-260 389 -426 511 -158 116 -383 211 -585 247 -43 7 -294 14 -335 8z"/>
<path d="M2100 4256 c-349 -263 -543 -606 -614 -1086 -8 -51 -8 -256 -1 -320
43 -382 192 -699 449 -956 196 -196 411 -318 689 -390 137 -35 327 -47 486
-30 154 17 327 68 476 141 123 60 118 57 104 89 -7 14 -15 25 -18 24 -3 -2
-39 -20 -78 -41 -581 -301 -1261 -167 -1694 333 -153 177 -290 455 -329 669
-5 31 -12 65 -14 77 -17 86 -22 279 -11 379 12 107 17 133 35 210 43 185 127
371 238 530 69 99 234 265 327 329 39 27 74 52 78 56 11 10 -10 50 -26 50 -7
0 -50 -29 -97 -64z"/>
<path d="M2848 4085 c-1 -1 -25 -6 -53 -9 -88 -12 -257 -66 -270 -86 -3 -5 0
-20 7 -34 10 -24 13 -25 32 -13 23 15 138 55 182 63 93 18 138 21 228 19 221
-6 422 -83 598 -230 84 -70 184 -193 234 -289 33 -64 41 -73 58 -66 34 12 30
36 -21 123 -161 274 -401 446 -718 513 -32 6 -271 15 -277 9z"/>
<path d="M2865 3902 c-69 -8 -199 -43 -258 -71 -93 -41 -179 -103 -259 -183
-66 -67 -68 -71 -52 -89 9 -11 21 -19 25 -19 4 0 32 25 61 56 112 119 271 207
434 239 27 5 32 3 37 -17 6 -23 10 -24 84 -21 131 4 276 -35 400 -108 87 -52
210 -180 264 -276 39 -70 47 -80 63 -71 14 8 21 7 27 -3 16 -24 49 -140 55
-193 4 -28 8 -58 10 -66 1 -8 3 -29 3 -46 1 -29 4 -31 33 -30 32 1 33 0 30
-39 -18 -261 -104 -453 -281 -625 -94 -93 -174 -144 -292 -190 -74 -28 -94
-34 -189 -49 -95 -15 -240 -3 -347 30 -188 58 -358 182 -464 342 -23 34 -43
63 -45 65 -1 2 -14 -4 -28 -13 l-25 -17 48 -71 c250 -369 732 -505 1131 -319
56 26 153 84 176 105 6 7 35 31 62 55 154 131 280 379 308 602 11 88 4 232
-15 325 -19 89 -79 257 -99 277 -5 5 -21 4 -36 -3 -14 -7 -27 -10 -29 -8 -2 2
-24 33 -49 69 -153 217 -406 356 -663 364 -49 1 -103 0 -120 -2z"/>
<path d="M3911 3693 l-23 -19 46 -85 c89 -165 136 -341 141 -524 5 -213 -28
-380 -111 -554 -81 -172 -176 -295 -324 -423 -44 -38 -53 -49 -42 -59 25 -26
12 -46 -60 -87 -141 -80 -202 -103 -407 -151 -25 -5 -115 -8 -200 -7 -128 3
-173 8 -253 29 -95 25 -116 33 -228 85 -160 74 -338 230 -450 393 l-61 89 -25
-16 -24 -16 22 -37 c79 -130 245 -305 363 -383 215 -141 443 -211 685 -210
458 3 877 271 1089 697 37 75 93 233 106 300 21 110 28 173 30 273 1 84 -2
128 -20 254 -14 95 -63 244 -117 351 -24 49 -32 56 -51 52 -17 -4 -26 2 -42
31 l-21 36 -23 -19z"/>
<path d="M2745 3456 c-171 -86 -276 -259 -276 -457 -1 -277 210 -502 471 -503
129 -1 155 9 139 52 -7 19 -13 21 -36 15 -47 -13 -155 -8 -215 10 -74 22 -171
96 -220 167 -107 152 -106 372 2 523 44 61 51 65 70 43 10 -13 18 -10 58 18
84 57 136 74 224 70 77 -3 143 -26 204 -73 42 -32 53 -36 67 -26 31 22 23 38
-43 87 -58 43 -146 70 -230 71 -41 1 -87 -2 -101 -6 -21 -5 -27 -2 -35 19 l-9
25 -70 -35z"/>
<path d="M1897 3392 c-8 -21 -25 -85 -38 -142 -53 -243 -19 -531 88 -759 111
-235 307 -436 536 -547 49 -25 59 -26 67 -14 19 29 10 47 -32 65 -128 55 -302
197 -399 325 -92 122 -182 325 -204 460 -4 25 -9 54 -12 65 -2 11 -6 68 -7
126 -4 114 12 239 45 357 20 71 20 74 2 88 -26 20 -29 18 -46 -24z"/>
<path d="M2885 3208 c-160 -56 -191 -278 -53 -378 49 -36 64 -37 72 -7 9 33 8
34 -21 46 -77 32 -103 155 -48 227 31 41 83 67 120 60 27 -5 51 24 41 50 -6
17 -66 18 -111 2z"/>
<path d="M2888 3125 c-46 -26 -71 -79 -65 -138 13 -139 199 -167 251 -37 36
90 -17 179 -111 187 -31 2 -58 -2 -75 -12z m97 -51 c40 -16 51 -93 17 -126
-68 -66 -165 40 -100 109 21 23 51 29 83 17z"/>
<path d="M3218 3128 c-24 -8 -26 -12 -17 -41 5 -18 9 -59 9 -92 0 -81 -33
-149 -98 -205 -48 -42 -50 -44 -35 -67 18 -27 31 -22 91 34 81 76 119 197 98
310 -12 62 -18 71 -48 61z"/>
<path d="M2350 2961 c0 -26 9 -80 21 -121 70 -253 271 -431 517 -456 l62 -7 0
32 c0 28 -3 31 -33 31 -47 0 -140 26 -205 58 -77 37 -198 158 -236 237 -37 76
-55 135 -63 205 -6 64 -6 64 -38 66 -23 1 -25 -3 -25 -45z"/>
<path d="M895 2898 c8 -142 15 -203 51 -392 9 -53 57 -206 91 -296 163 -429
460 -798 841 -1044 109 -71 294 -160 422 -204 150 -51 269 -79 425 -99 76 -10
394 -10 460 -1 28 4 70 10 95 14 79 11 266 61 372 100 188 69 391 184 552 312
91 73 259 239 325 322 28 36 56 70 61 77 37 46 147 225 188 308 145 289 220
573 237 898 l6 108 -32 -3 -31 -3 -4 -95 c-4 -111 -27 -281 -54 -396 -24 -100
-79 -276 -91 -288 -5 -6 -9 -16 -9 -23 0 -23 -88 -200 -152 -306 -326 -542
-869 -895 -1488 -966 -83 -9 -376 -7 -455 4 -292 41 -589 155 -836 321 -61 41
-117 81 -124 87 -7 7 -36 32 -66 57 -255 214 -479 544 -600 880 -40 114 -82
273 -94 360 -3 25 -8 52 -10 60 -8 29 -20 167 -24 278 -1 29 -4 32 -32 32
l-30 0 6 -102z"/>
</g>
</svg>
